{
    "accessors" : [
        {
            "bufferView" : 0,
            "componentType" : 5123,
            "count" : 4848,
            "max" : [
                3231
            ],
            "min" : [
                0
            ],
            "type" : "SCALAR"
        },
        {
            "bufferView" : 1,
            "componentType" : 5126,
            "count" : 3232,
            "max" : [
                1.5243617296218872,
                0.5596103668212891,
                -0.6835005879402161
            ],
            "min" : [
                0.0588860884308815,
                -1.6329443454742432,
                -2.64005708694458
            ],
            "type" : "VEC3"
        },
        {
            "bufferView" : 2,
            "componentType" : 5126,
            "count" : 3232,
            "max" : [
                0.9989773035049438,
                0.9800799489021301,
                0.9985388517379761
            ],
            "min" : [
                -0.9879325032234192,
                -0.9771720170974731,
                -0.9963722825050354
            ],
            "type" : "VEC3"
        },
        {
            "bufferView" : 3,
            "componentType" : 5126,
            "count" : 3232,
            "max" : [
                0.9827061295509338,
                0.994687020778656,
                0.9971590638160706,
                1.0
            ],
            "min" : [
                -0.9988692402839661,
                -0.9998170733451843,
                -0.7363196611404419,
                1.0
            ],
            "type" : "VEC4"
        },
        {
            "bufferView" : 4,
            "componentType" : 5126,
            "count" : 3232,
            "max" : [
                0.9669899940490723,
                0.7989100068807602
            ],
            "min" : [
                0.7836300134658813,
                0.6247400045394897
            ],
            "type" : "VEC2"
        },
        {
            "bufferView" : 5,
            "componentType" : 5123,
            "count" : 33312,
            "max" : [
                22207
            ],
            "min" : [
                0
            ],
            "type" : "SCALAR"
        },
        {
            "bufferView" : 6,
            "componentType" : 5126,
            "count" : 22208,
            "max" : [
                2.10080623626709,
                3.921375036239624,
                2.1609725952148438
            ],
            "min" : [
                -2.110126256942749,
                -1.4310405254364014,
                -1.700769305229187
            ],
            "type" : "VEC3"
        },
        {
            "bufferView" : 7,
            "componentType" : 5126,
            "count" : 22208,
            "max" : [
                0.999738335609436,
                0.9991804361343384,
                0.9989892840385437
            ],
            "min" : [
                -0.9996531009674072,
                -0.9997974038124084,
                -0.9999997615814209
            ],
            "type" : "VEC3"
        },
        {
            "bufferView" : 8,
            "componentType" : 5126,
            "count" : 22208,
            "max" : [
                0.9996729493141174,
                0.9998550415039062,
                0.9999881386756897,
                1.0
            ],
            "min" : [
                -0.9986025094985962,
                -0.9994405508041382,
                -0.9999777674674988,
                1.0
            ],
            "type" : "VEC4"
        },
        {
            "bufferView" : 9,
            "componentType" : 5126,
            "count" : 22208,
            "max" : [
                0.8729000091552734,
                0.9980500000528991
            ],
            "min" : [
                0.0019499999471008778,
                0.31098002195358276
            ],
            "type" : "VEC2"
        },
        {
            "bufferView" : 10,
            "componentType" : 5123,
            "count" : 5118,
            "max" : [
                3411
            ],
            "min" : [
                0
            ],
            "type" : "SCALAR"
        },
        {
            "bufferView" : 11,
            "componentType" : 5126,
            "count" : 3412,
            "max" : [
                -0.07809924334287643,
                0.5598986148834229,
                -0.6804161071777344
            ],
            "min" : [
                -1.5260629653930664,
                -1.6281205415725708,
                -2.638767719268799
            ],
            "type" : "VEC3"
        },
        {
            "bufferView" : 12,
            "componentType" : 5126,
            "count" : 3412,
            "max" : [
                0.9878730773925781,
                0.9834217429161072,
                0.9998777508735657
            ],
            "min" : [
                -0.9994438290596008,
                -0.9993739128112793,
                -0.9981744289398193
            ],
            "type" : "VEC3"
        },
        {
            "bufferView" : 13,
            "componentType" : 5126,
            "count" : 3412,
            "max" : [
                0.7567512392997742,
                0.9952440857887268,
                0.9999713897705078,
                1.0
            ],
            "min" : [
                -0.9997302293777466,
                -0.9987799525260925,
                -0.9899634122848511,
                1.0
            ],
            "type" : "VEC4"
        },
        {
            "bufferView" : 14,
            "componentType" : 5126,
            "count" : 3412,
            "max" : [
                0.8690599799156189,
                0.19744998216629028
            ],
            "min" : [
                0.735450029373169,
                0.00195997953414917
            ],
            "type" : "VEC2"
        },
        {
            "bufferView" : 15,
            "componentType" : 5123,
            "count" : 32670,
            "max" : [
                21779
            ],
            "min" : [
                0
            ],
            "type" : "SCALAR"
        },
        {
            "bufferView" : 16,
            "componentType" : 5126,
            "count" : 21780,
            "max" : [
                3.311588764190674,
                4.2283477783203125,
                -1.2223249673843384
            ],
            "min" : [
                -3.318178415298462,
                0.625825047492981,
                -5.686751365661621
            ],
            "type" : "VEC3"
        },
        {
            "bufferView" : 17,
            "componentType" : 5126,
            "count" : 21780,
            "max" : [
                0.999747097492218,
                1.0,
                0.9999982714653015
            ],
            "min" : [
                -0.9997908473014832,
                -0.9983729720115662,
                -0.9988008141517639
            ],
            "type" : "VEC3"
        },
        {
            "bufferView" : 18,
            "componentType" : 5126,
            "count" : 21780,
            "max" : [
                0.9999998807907104,
                0.9980528354644775,
                0.9561875462532043,
                1.0
            ],
            "min" : [
                -0.9999535083770752,
                -0.9985159635543823,
                -0.9995461702346802,
                1.0
            ],
            "type" : "VEC4"
        },
        {
            "bufferView" : 19,
            "componentType" : 5126,
            "count" : 21780,
            "max" : [
                0.9338099956512451,
                0.5558300018310547
            ],
            "min" : [
                0.20388999581336975,
                0.06366997957229614
            ],
            "type" : "VEC2"
        },
        {
            "bufferView" : 20,
            "componentType" : 5123,
            "count" : 2040,
            "max" : [
                1359
            ],
            "min" : [
                0
            ],
            "type" : "SCALAR"
        },
        {
            "bufferView" : 21,
            "componentType" : 5126,
            "count" : 1360,
            "max" : [
                0.5266640782356262,
                0.22839736938476562,
                0.5204488039016724
            ],
            "min" : [
                -0.5196084380149841,
                -0.3366760015487671,
                -0.5302094221115112
            ],
            "type" : "VEC3"
        },
        {
            "bufferView" : 22,
            "componentType" : 5126,
            "count" : 1360,
            "max" : [
                0.987387478351593,
                1.0,
                0.9969923496246338
            ],
            "min" : [
                -0.997565746307373,
                -0.9999468326568604,
                -0.9994512796401978
            ],
            "type" : "VEC3"
        },
        {
            "bufferView" : 23,
            "componentType" : 5126,
            "count" : 1360,
            "max" : [
                0.978367030620575,
                0.9449161887168884,
                0.9885818958282471,
                1.0
            ],
            "min" : [
                -0.9999657273292542,
                -0.9928157329559326,
                -0.9903743267059326,
                1.0
            ],
            "type" : "VEC4"
        },
        {
            "bufferView" : 24,
            "componentType" : 5126,
            "count" : 1360,
            "max" : [
                0.9477800130844116,
                0.3738099932670593
            ],
            "min" : [
                0.8788300156593323,
                0.2912200093269348
            ],
            "type" : "VEC2"
        }
    ],
    "asset" : {
        "generator" : "Khronos Blender glTF 2.0 exporter",
        "version" : "2.0"
    },
    "bufferViews" : [
        {
            "buffer" : 0,
            "byteLength" : 9696,
            "byteOffset" : 0,
            "target" : 34963
        },
        {
            "buffer" : 0,
            "byteLength" : 38784,
            "byteOffset" : 9696,
            "target" : 34962
        },
        {
            "buffer" : 0,
            "byteLength" : 38784,
            "byteOffset" : 48480,
            "target" : 34962
        },
        {
            "buffer" : 0,
            "byteLength" : 51712,
            "byteOffset" : 87264,
            "target" : 34962
        },
        {
            "buffer" : 0,
            "byteLength" : 25856,
            "byteOffset" : 138976,
            "target" : 34962
        },
        {
            "buffer" : 0,
            "byteLength" : 66624,
            "byteOffset" : 164832,
            "target" : 34963
        },
        {
            "buffer" : 0,
            "byteLength" : 266496,
            "byteOffset" : 231456,
            "target" : 34962
        },
        {
            "buffer" : 0,
            "byteLength" : 266496,
            "byteOffset" : 497952,
            "target" : 34962
        },
        {
            "buffer" : 0,
            "byteLength" : 355328,
            "byteOffset" : 764448,
            "target" : 34962
        },
        {
            "buffer" : 0,
            "byteLength" : 177664,
            "byteOffset" : 1119776,
            "target" : 34962
        },
        {
            "buffer" : 0,
            "byteLength" : 10236,
            "byteOffset" : 1297440,
            "target" : 34963
        },
        {
            "buffer" : 0,
            "byteLength" : 40944,
            "byteOffset" : 1307676,
            "target" : 34962
        },
        {
            "buffer" : 0,
            "byteLength" : 40944,
            "byteOffset" : 1348620,
            "target" : 34962
        },
        {
            "buffer" : 0,
            "byteLength" : 54592,
            "byteOffset" : 1389564,
            "target" : 34962
        },
        {
            "buffer" : 0,
            "byteLength" : 27296,
            "byteOffset" : 1444156,
            "target" : 34962
        },
        {
            "buffer" : 0,
            "byteLength" : 65340,
            "byteOffset" : 1471452,
            "target" : 34963
        },
        {
            "buffer" : 0,
            "byteLength" : 261360,
            "byteOffset" : 1536792,
            "target" : 34962
        },
        {
            "buffer" : 0,
            "byteLength" : 261360,
            "byteOffset" : 1798152,
            "target" : 34962
        },
        {
            "buffer" : 0,
            "byteLength" : 348480,
            "byteOffset" : 2059512,
            "target" : 34962
        },
        {
            "buffer" : 0,
            "byteLength" : 174240,
            "byteOffset" : 2407992,
            "target" : 34962
        },
        {
            "buffer" : 0,
            "byteLength" : 4080,
            "byteOffset" : 2582232,
            "target" : 34963
        },
        {
            "buffer" : 0,
            "byteLength" : 16320,
            "byteOffset" : 2586312,
            "target" : 34962
        },
        {
            "buffer" : 0,
            "byteLength" : 16320,
            "byteOffset" : 2602632,
            "target" : 34962
        },
        {
            "buffer" : 0,
            "byteLength" : 21760,
            "byteOffset" : 2618952,
            "target" : 34962
        },
        {
            "buffer" : 0,
            "byteLength" : 10880,
            "byteOffset" : 2640712,
            "target" : 34962
        }
    ],
    "buffers" : [
        {
            "byteLength" : 2651592,
            "uri" : "data:application/octet-stream;base64,"
        }
    ],
    "meshes" : [
        {
            "name" : "ZBrush_defualt_group.005",
            "primitives" : [
                {
                    "attributes" : {
                        "NORMAL" : 2,
                        "POSITION" : 1,
                        "TANGENT" : 3,
                        "TEXCOORD_0" : 4
                    },
                    "indices" : 0
                }
            ]
        },
        {
            "name" : "ZBrush_defualt_group.006",
            "primitives" : [
                {
                    "attributes" : {
                        "NORMAL" : 7,
                        "POSITION" : 6,
                        "TANGENT" : 8,
                        "TEXCOORD_0" : 9
                    },
                    "indices" : 5
                }
            ]
        },
        {
            "name" : "ZBrush_defualt_group.004",
            "primitives" : [
                {
                    "attributes" : {
                        "NORMAL" : 12,
                        "POSITION" : 11,
                        "TANGENT" : 13,
                        "TEXCOORD_0" : 14
                    },
                    "indices" : 10
                }
            ]
        },
        {
            "name" : "ZBrush_defualt_group.008",
            "primitives" : [
                {
                    "attributes" : {
                        "NORMAL" : 17,
                        "POSITION" : 16,
                        "TANGENT" : 18,
                        "TEXCOORD_0" : 19
                    },
                    "indices" : 15
                }
            ]
        },
        {
            "name" : "ZBrush_defualt_group.007",
            "primitives" : [
                {
                    "attributes" : {
                        "NORMAL" : 22,
                        "POSITION" : 21,
                        "TANGENT" : 23,
                        "TEXCOORD_0" : 24
                    },
                    "indices" : 20
                }
            ]
        }
    ],
    "nodes" : [
        {
            "mesh" : 0,
            "name" : "ZBrush_defualt_group.000",
            "rotation" : [
                3.090862321641907e-08,
                0.7071068286895752,
                0.7071067094802856,
                3.0908616110991716e-08
            ],
            "translation" : [
                0.0,
                5.0,
                -0.0
            ]
        },
        {
            "mesh" : 1,
            "name" : "ZBrush_defualt_group.001",
            "rotation" : [
                3.090862321641907e-08,
                0.7071068286895752,
                0.7071067094802856,
                3.0908616110991716e-08
            ],
            "translation" : [
                0.0,
                5.0,
                -0.0
            ]
        },
        {
            "mesh" : 4,
            "name" : "ZBrush_defualt_group.002",
            "rotation" : [
                3.090862321641907e-08,
                0.7071068286895752,
                0.7071067094802856,
                3.0908616110991716e-08
            ],
            "translation" : [
                -0.005500903353095055,
                4.778124809265137,
                -0.770343005657196
            ]
        },
        {
            "mesh" : 3,
            "name" : "ZBrush_defualt_group.003",
            "rotation" : [
                3.090862321641907e-08,
                0.7071068286895752,
                0.7071067094802856,
                3.0908616110991716e-08
            ],
            "translation" : [
                0.0,
                5.0,
                -0.0
            ]
        },
        {
            "mesh" : 2,
            "name" : "ZBrush_defualt_group.004",
            "rotation" : [
                3.090862321641907e-08,
                0.7071068286895752,
                0.7071067094802856,
                3.0908616110991716e-08
            ],
            "translation" : [
                0.0,
                5.0,
                -0.0
            ]
        }
    ],
    "scene" : 0,
    "scenes" : [
        {
            "name" : "Scene",
            "nodes" : [
                3,
                2,
                1,
                0,
                4
            ]
        }
    ]
}
